<svg width="241" height="32" xmlns="http://www.w3.org/2000/svg"><g fill="none" fill-rule="evenodd"><path d="M26.83 20.44c0 2-.25 3.67-.76 5.02a8.4 8.4 0 0 1-2.14 3.3 8.17 8.17 0 0 1-3.35 1.83 16 16 0 0 1-4.37.56 26.6 26.6 0 0 1-4.3-.36A10.25 10.25 0 0 1 8 29.34a7.97 7.97 0 0 1-2.78-3.16 12.09 12.09 0 0 1-1.18-5.56V4.34c0-.62.01-1.12-.18-1.5-.2-.37-.46-.66-.78-.86-.33-.21-.71-.35-1.14-.43a8.04 8.04 0 0 0-1.36-.1V.98a80.13 80.13 0 0 1 3.52.1 34.23 34.23 0 0 0 2.32.08 28.67 28.67 0 0 0 2.32-.09A98.43 98.43 0 0 1 12.48 1v.45c-.47 0-.92.04-1.35.11-.44.08-.81.22-1.14.43-.33.2-.59.5-.78.87-.2.37-.3.87-.3 1.5v16.63c0 1.33.16 2.55.45 3.65a6.55 6.55 0 0 0 4.13 4.64c1.09.42 2.43.63 4.04.63 2.74 0 4.66-.76 6.18-2.3 1.51-1.53 2.27-3.74 2.27-6.62V4.34c0-.62-.1-1.12-.29-1.5-.2-.37-.45-.66-.78-.86-.33-.21-.7-.35-1.14-.43a8.04 8.04 0 0 0-1.36-.1V.98a35.71 35.71 0 0 1 3.12.12 13.69 13.69 0 0 0 1.7 0 536.3 536.3 0 0 0 1.72-.1L30.4 1v.45c-.48 0-.93.04-1.36.11-.43.08-.81.22-1.14.43-.33.2-.59.5-.78.87-.2.37-.3.87-.3 1.5v16.1zM29.18 10.44V10a33.04 33.04 0 0 1 2.97.1 12.62 12.62 0 0 0 1.8-.04c.27-.04.75-.06 1.43-.06L47.3 24.95V12.99c0-1.04-.25-1.73-.74-2.06-.5-.32-1.24-.49-2.25-.49V10a25.42 25.42 0 0 1 1.96.04c.24 0 .46 0 .67.02a10.81 10.81 0 0 0 1.52 0l.64-.02c.23 0 .49 0 .79-.02L51 10v.44c-1.01 0-1.76.17-2.25.5-.5.32-.74 1-.74 2.05v18.16h-.76L32.88 12.9V28c0 1.03.25 1.72.74 2.04.49.33 1.24.5 2.25.5v.44a24.38 24.38 0 0 1-1.9-.04l-.64-.02a10.06 10.06 0 0 0-1.52 0l-.67.02c-.24 0-.5 0-.8.02l-1.16.02v-.44c1 0 1.76-.17 2.25-.5.5-.32.74-1 .74-2.05V13c0-1.04-.25-1.73-.74-2.06-.49-.32-1.24-.49-2.25-.49zM61.97 30.54V31a56.06 56.06 0 0 1-2.96-.07l-.96-.04a20.58 20.58 0 0 0-2.1 0l-.96.04a92.92 92.92 0 0 1-2.92.07v-.45c1 0 1.76-.16 2.25-.49.5-.33.74-1.01.74-2.05V12.99c0-1.04-.25-1.73-.74-2.06-.5-.32-1.24-.49-2.25-.49V10a53.42 53.42 0 0 1 3.88.1 23.3 23.3 0 0 0 3.06-.04 88.2 88.2 0 0 1 2.96-.06v.44c-1 .03-1.76.2-2.25.52-.5.3-.74.99-.74 2.03v15c0 1.05.25 1.73.74 2.04.5.31 1.24.48 2.25.51zM63.33 9.95a48.46 48.46 0 0 1 3.86.16 27.94 27.94 0 0 0 3.21-.07 49.98 49.98 0 0 1 2.84-.09v.5c-.54 0-.99.06-1.34.2-.36.13-.54.43-.54.9 0 .28.07.54.2.8.13.24.26.44.38.6a180.03 180.03 0 0 0 2.54 3.58l1.3 1.86 3.8-5c.2-.27.39-.55.55-.85.16-.3.25-.6.25-.9 0-.29-.08-.52-.23-.68a1.3 1.3 0 0 0-.53-.36c-.21-.07-.44-.12-.7-.13l-.64-.03v-.49a26.62 26.62 0 0 1 2.7.11 9.06 9.06 0 0 0 1.5 0l.7-.04.83-.04c.32-.02.72-.03 1.23-.03v.5c-.95.05-1.73.24-2.34.55-.61.31-1.23.89-1.86 1.72l-4.86 6.3 5.4 7.62c.69.96 1.44 2.1 2.28 2.8.83.7 1.8 1.05 2.9 1.05v.49a58.88 58.88 0 0 1-3.06-.07l-1.05-.04a24.38 24.38 0 0 0-2.3 0l-1.1.04a123.03 123.03 0 0 1-3.11.07v-.5c.6-.02 1.07-.1 1.45-.22.37-.11.55-.38.55-.8 0-.32-.16-1.03-.49-1.48A304.1 304.1 0 0 0 73.5 22l-4.28 5.45c-.18.24-.33.47-.45.69-.12.22-.18.45-.18.69 0 .54.23 1.21.7 1.39.46.18.88.27 1.27.27v.49a27.12 27.12 0 0 1-2.1-.07l-.76-.04a15.37 15.37 0 0 0-2.3.04c-.43.05-1.08.07-1.94.07v-.5c.9 0 1.68-.16 2.37-.5.68-.35 1.41-1.31 2.18-2.27l5.1-6.38-5.54-7.9c-.3-.44-.6-.84-.87-1.2a6.78 6.78 0 0 0-.9-.94 3.51 3.51 0 0 0-2.47-.85v-.49z" fill="#344465"/><path d="M125.56 27.76a5.8 5.8 0 0 1-1.78 2.05 6.46 6.46 0 0 1-4.02 1.3c-1.7 0-3.2-.4-4.5-1.2a19.96 19.96 0 0 1-3.93-3.27c-.54.6-1.13 1.18-1.76 1.74a11.98 11.98 0 0 1-4.44 2.48 9.35 9.35 0 0 1-5.54-.09 6.57 6.57 0 0 1-2.12-1.25 5.14 5.14 0 0 1-1.32-1.83c-.3-.7-.44-1.43-.44-2.2 0-1.17.29-2.24.87-3.24.58-1 1.27-1.88 2.07-2.66.8-.77 1.62-1.42 2.46-1.94.83-.52 1.5-.91 2-1.18-.08-.15-.3-.5-.66-1.03-.36-.53-.72-1.2-1.1-2-.37-.81-.7-1.7-1-2.66a10.14 10.14 0 0 1 .13-6.34A6.83 6.83 0 0 1 106.82 0c1.82 0 3.31.54 4.49 1.63a5.64 5.64 0 0 1 1.76 4.35c0 .92-.17 1.79-.51 2.59a9.5 9.5 0 0 1-1.39 2.28c-.58.7-1.24 1.37-1.98 1.98-.75.61-1.54 1.18-2.37 1.72a61.14 61.14 0 0 0 6.78 8.24 29.1 29.1 0 0 0 2.06-3.51c.6-1.21 1.2-2.32 1.8-3.32.62-1 1.28-1.82 2-2.46a3.74 3.74 0 0 1 2.58-.96c.74 0 1.38.23 1.92.7.53.45.8 1.07.8 1.84 0 .54-.16.97-.49 1.3-.33.33-.74.49-1.25.49-.5 0-.9-.13-1.18-.38a3.84 3.84 0 0 1-.7-.8 5.29 5.29 0 0 1-.42-.8c-.1-.26-.21-.39-.33-.39-.33 0-.63.08-.9.23-.26.15-.53.4-.8.74-.27.34-.56.78-.89 1.32a130.26 130.26 0 0 0-2.23 4.05c-.42.79-.9 1.63-1.43 2.52.45.5.99 1.08 1.63 1.73.64.66 1.32 1.29 2.03 1.89.71.6 1.44 1.1 2.19 1.53.74.42 1.45.63 2.14.63.83 0 1.48-.15 1.94-.46.46-.31.85-.7 1.18-1.19l.31.27zM106.42 14a7.96 7.96 0 0 0 2.14-2.15c.5-.79.88-1.55 1.12-2.27.23-.73.38-1.38.42-1.96.05-.58.07-.98.07-1.22 0-1.87-.35-3.3-1.05-4.27a3.23 3.23 0 0 0-4.1-1.16c-.47.2-.88.51-1.23.91-.36.4-.65.9-.87 1.47a5.34 5.34 0 0 0-.34 1.94c0 .83.16 1.7.5 2.6a22.35 22.35 0 0 0 3.34 6.11zm4.42 12.15a56.22 56.22 0 0 1-4.49-5.18c-1.23-1.64-2.2-2.95-2.88-3.93-.32.2-.71.48-1.16.8a6.72 6.72 0 0 0-2.3 3.07 6.75 6.75 0 0 0 1 6.52c.46.54 1 .98 1.62 1.32.62.35 1.3.52 2.05.52.62 0 1.24-.1 1.85-.3.61-.2 1.18-.43 1.72-.72a8.37 8.37 0 0 0 2.59-2.1z" fill="#7A8FBA"/><path d="M145.66 30.95a87.14 87.14 0 0 0-5.27-.09 153.14 153.14 0 0 1-4.73.11v-.44c.47 0 .73-.04 1.17-.12.43-.07.8-.21 1.13-.42.33-.2.6-.5.78-.87.2-.37.3-.87.3-1.5V4.33c0-.62-.1-1.12-.3-1.49-.19-.37-.45-.66-.78-.87-.32-.2-.7-.35-1.13-.42a8.04 8.04 0 0 0-1.37-.12V.98c.9 0 1.8 0 2.34.02.54.02 1 .04 1.38.07a34.37 34.37 0 0 0 2.33.09 28.5 28.5 0 0 0 2.32-.1L145.2 1c.54-.02 1.43-.02 2.32-.02v.44c-.48 0-.93.04-1.36.11-.43.08-.81.22-1.14.43-.33.2-.59.5-.78.87-.2.37-.29.87-.29 1.49v22.02c0 .92.16 1.64.5 2.16.32.52.78.91 1.37 1.18.6.27 1.3.43 2.1.49s1.5.09 2.46.09c1.07 0 2.04-.08 2.92-.25a6.19 6.19 0 0 0 2.3-.88 4.89 4.89 0 0 0 1.6-1.77 8 8 0 0 0 .85-2.86h.45l-.45 6.47a267.25 267.25 0 0 1-6.96.1c-2.05 0-3.87-.05-5.44-.12zM169.92 30.53v.45a56.07 56.07 0 0 1-2.97-.07l-.96-.04a20.58 20.58 0 0 0-2.1 0l-.95.04a92.92 92.92 0 0 1-2.93.07v-.45c1.01 0 1.77-.16 2.26-.5.49-.32.73-1 .73-2.04v-15c0-1.04-.24-1.73-.73-2.06-.5-.32-1.25-.49-2.26-.49V10a53.42 53.42 0 0 1 3.88.1 23.3 23.3 0 0 0 3.06-.04 88.2 88.2 0 0 1 2.97-.06v.44c-1.01.03-1.76.2-2.25.52-.5.3-.74.99-.74 2.03v15c0 1.04.25 1.72.74 2.03.49.3 1.24.48 2.25.51zM171.07 10.44V10a33.04 33.04 0 0 1 2.97.1 12.62 12.62 0 0 0 1.81-.04c.27-.04.74-.06 1.43-.06l11.91 14.95V12.99c0-1.04-.24-1.73-.73-2.06-.5-.32-1.24-.49-2.26-.49V10a25.42 25.42 0 0 1 1.97.04c.24 0 .46 0 .67.02a10.81 10.81 0 0 0 1.51 0l.65-.02c.22 0 .48 0 .78-.02l1.12-.02v.44c-1.01 0-1.76.17-2.26.5-.49.32-.73 1-.73 2.05v18.16h-.76L174.78 12.9v15.08c0 1.04.24 1.73.74 2.05.49.33 1.24.5 2.25.5v.44a24.38 24.38 0 0 1-1.9-.04c-.22 0-.44-.01-.64-.03a10.06 10.06 0 0 0-1.52 0c-.21.02-.43.03-.67.03-.24 0-.5 0-.8.02l-1.17.02v-.45c1.02 0 1.77-.16 2.26-.49.49-.32.74-1 .74-2.05v-15c0-1.03-.25-1.72-.74-2.05-.5-.32-1.24-.49-2.26-.49zM213 22.9c0 1.06-.14 2.1-.39 3.1-.25.99-.68 1.87-1.27 2.63a6.3 6.3 0 0 1-2.32 1.8 8.4 8.4 0 0 1-3.57.67c-1.37 0-2.25-.13-3.34-.4a7.2 7.2 0 0 1-2.76-1.3 5.66 5.66 0 0 1-1.75-2.36c-.4-.98-.6-2.17-.6-3.57V13c0-1.04-.24-1.73-.73-2.06-.5-.32-1.25-.49-2.26-.49V10a53.42 53.42 0 0 1 3.89.1 23.17 23.17 0 0 0 3.05-.04 87.35 87.35 0 0 1 2.97-.06v.44c-1.01.03-1.76.2-2.25.51-.5.31-.74.99-.74 2.02v10.49c0 .8.08 1.59.25 2.37.16.79.45 1.5.87 2.11.41.63.98 1.14 1.7 1.54.7.4 1.28.6 2.41.6 1.82 0 3.06-.58 4.19-1.74 1.13-1.15 1.7-3 1.7-5.55v-9.82c0-1.03-.25-1.71-.74-2.04a4.14 4.14 0 0 0-2.26-.49V10c.48 0 .87 0 1.16.02l.8.02a20.1 20.1 0 0 0 3.07 0c.23 0 .49 0 .79-.02l1.11-.02v.44c-1.01 0-1.76.17-2.25.5-.5.32-.74 1-.74 2.05v9.9zM217.37 9.95a48.34 48.34 0 0 1 3.86.16 28 28 0 0 0 3.22-.07 49.84 49.84 0 0 1 2.83-.09v.5c-.53 0-.98.06-1.34.2-.35.13-.53.43-.53.9 0 .28.06.54.2.8.13.24.26.44.38.6a197.82 197.82 0 0 0 2.54 3.58l1.3 1.86 3.79-5c.2-.27.4-.55.56-.85.16-.3.24-.6.24-.9 0-.29-.07-.52-.22-.68a1.3 1.3 0 0 0-.54-.36c-.2-.07-.44-.12-.69-.13l-.65-.03v-.49a26.67 26.67 0 0 1 2.7.11 9.04 9.04 0 0 0 1.5 0l.71-.04.83-.04c.31-.02.72-.03 1.23-.03v.5c-.96.05-1.74.24-2.35.55-.6.31-1.23.89-1.85 1.72l-4.86 6.3 5.4 7.9c.68.96 1.44 1.78 2.27 2.48.83.7 1.8 1.05 2.9 1.05v.49a58.93 58.93 0 0 1-3.05-.07l-1.05-.04a24.37 24.37 0 0 0-2.3 0l-1.1.04a125.3 125.3 0 0 1-3.12.07v-.5c.6-.02 1.08-.1 1.45-.21.37-.12.56-.4.56-.8 0-.33-.16-.72-.5-1.17-.62-.92-1.2-2.05-1.73-2.82l-1.4-1.99c-.47-.64-.8-1.12-1.01-1.45l-4.29 5.73c-.17.24-.32.47-.44.69-.12.22-.18.45-.18.69 0 .53.23.9.7 1.07.45.18.88.27 1.26.27v.49a27.17 27.17 0 0 1-2.1-.07l-.75-.04c-.24-.02-.5-.02-.76-.02-.6 0-1.11.02-1.54.06-.43.05-1.08.07-1.94.07v-.5c.89 0 1.68-.16 2.36-.5a7.15 7.15 0 0 0 2.19-1.95l5.09-6.66-5.54-7.9c-.3-.44-.59-.84-.87-1.2a6.78 6.78 0 0 0-.89-.94 3.5 3.5 0 0 0-2.48-.85v-.49z" fill="#344465"/></g></svg>